<svg xmlns="http://www.w3.org/2000/svg" viewBox="0 0 563.21 303.73"><defs><style>.cls-1{fill:#191919;}.cls-2{fill:#feee04;}</style></defs><title>energyx</title><g id="Layer_2" data-name="Layer 2"><g id="Layer_1-2" data-name="Layer 1"><path class="cls-1" d="M0,107.23V0H63.13V19.34H22.92v22H63.13V60.86H22.92V87.74H63.13v19.48Z"/><path class="cls-1" d="M83.79,107.23V35.38h20.43V46.66a38.18,38.18,0,0,1,12.12-10.36A31,31,0,0,1,130.74,33a31.35,31.35,0,0,1,14,2.82,20.88,20.88,0,0,1,9,8.61A23.17,23.17,0,0,1,156,51.16a72,72,0,0,1,.7,11.83v44.24H135.86V71.7q0-13.26-3.08-17.5T122.24,50a17.66,17.66,0,0,0-7.95,1.79,16.75,16.75,0,0,0-8.79,10.95,43.84,43.84,0,0,0-.84,10v34.5Z"/><path class="cls-1" d="M246.68,76.46h-54q1.24,7.76,5.64,11.61t11.94,3.84a20.74,20.74,0,0,0,9.85-2.2,18.24,18.24,0,0,0,6.92-6.67l16.85,8.42a38.81,38.81,0,0,1-14.21,14q-8.35,4.58-19.85,4.58-17.43,0-27.61-10.4T172,71.7q0-16.92,10.66-27.83T210,33q17.14,0,27.1,10.22T247,71q0,1-.07,2.09T246.68,76.46ZM226,63.87q-.88-6.81-4.94-10.29T210,50.1q-7,0-11.24,3.48t-5.38,10.29Z"/><path class="cls-1" d="M282.64,53.83q3.15-10.47,9-15.67A21.29,21.29,0,0,1,306.3,33a47,47,0,0,1,6.52.73l1.32.22L311,56.32a26.38,26.38,0,0,0-4.72-1.43,25.62,25.62,0,0,0-5-.48q-9.52,0-13.7,4.87t-4.17,16.3v31.64H262.5V35.38h20.58Z"/><path class="cls-1" d="M395.43,106.05q0,11.35-1.35,16a18.82,18.82,0,0,1-4.65,8,28,28,0,0,1-12,7.47,57.24,57.24,0,0,1-17.8,2.42q-17.51,0-26.59-5.57t-9.89-16.92h22.92a7.86,7.86,0,0,0,3.81,6.15q3.3,2,9.74,2,8.5,0,12.27-4.39t3.77-14.65V96.24a27.61,27.61,0,0,1-10.07,9.89,28.67,28.67,0,0,1-14,3.22q-14.8,0-23.66-10.36T319.12,71q0-17.87,8.64-28T351.64,33a26.85,26.85,0,0,1,14,3.63,29.06,29.06,0,0,1,10.22,10.66V35.38h19.63Zm-18.9-34.86q0-9.52-4.83-15t-13.18-5.49q-8.57,0-13.4,5.46t-4.83,15.05q0,9.6,4.76,14.94t13.33,5.35q8.57,0,13.37-5.35T376.54,71.19Z"/><path class="cls-1" d="M460.11,35.38,449.19,67.46c-1.07,3.07-2,6-2.71,8.71s-1.34,5.42-1.83,8.06a83.5,83.5,0,0,0-1.24-8.9,41.14,41.14,0,0,0-2-7.07L428.9,35.38H404.81l28.93,66.28L423.8,126,435.16,117l5.48-4.36q8.7-6.94,17.41-13.86L484,35.38Z"/><path class="cls-2" d="M563.21,25.75l-30,38.32-6.15,7.86s0,0,0,0q-3.37,4.29-6.74,8.6l-.86,1.1-53,67.7,57.77,12L345.44,303.73l-.32-.27,96.76-123.61-57.76-12,35.1-28,6.52-5.19q9.94-7.94,19.88-15.83l6.22-4.95,57.94-46.15.58-.46,8.13-6.47.09-.07,7.94-6.32,36.37-29Z"/><path class="cls-2" d="M513.76,54.38l-8.57,6.82-18-25.82h26.07l8.68,12.49Z"/><path class="cls-2" d="M563.21,107.23H537.29l-13-18.72,2.38-3c2.23-2.86,4.48-5.72,6.72-8.57l1.71-2.18v0L538,70.95Z"/></g></g></svg>