<svg xmlns="http://www.w3.org/2000/svg" viewBox="0 0 409.48 205.54"><title>arrow</title><g id="Layer_2" data-name="Layer 2"><g id="Layer_1-2" data-name="Layer 1"><path d="M377.52,112.18h-6.27q-178.77,0-357.54,0a33.32,33.32,0,0,1-6.34-.51,9,9,0,0,1,.16-17.73,35.79,35.79,0,0,1,6.35-.47q178.77,0,357.54,0h6c-1.7-1.84-2.7-3-3.78-4.08q-36-36.09-72.08-72.15c-3.24-3.24-5.2-6.76-3.36-11.44a9.08,9.08,0,0,1,13.6-4.15,33.41,33.41,0,0,1,4.15,3.74q44.28,44.24,88.54,88.5c6.62,6.62,6.67,11.13.16,17.64l-89.92,89.92c-4.82,4.81-9.94,5.44-14.1,1.77a8.85,8.85,0,0,1-1.5-11.89,35.91,35.91,0,0,1,4-4.47q35.33-35.37,70.69-70.71C374.79,115.1,375.75,114,377.52,112.18Z"/></g></g></svg>