<svg xmlns="http://www.w3.org/2000/svg" viewBox="0 0 409.64 409.64"><title>facebook</title><g id="Layer_2" data-name="Layer 2"><g id="Layer_1-2" data-name="Layer 1"><path d="M252.9,409.61V265h60.67l12-72.12H253.12V144.07h72.3V72h-4.2q-33.2,0-66.4,0c-42.52.06-73.94,31.52-74,74.07q0,21,0,42c0,1.44,0,2.88,0,4.6h-47.7v72.06h47.49V409.38c-1.11.08-2.25.22-3.39.22-38.8,0-77.6.09-116.4,0-29.42-.08-53.24-19.27-59.44-47.81a58.49,58.49,0,0,1-1.3-12.28Q0,204.9.07,60.3C.1,31.21,19.58,7.44,48,1.36A65,65,0,0,1,61.45.07Q204.85,0,348.24,0c35.17,0,61.35,26.29,61.36,61.53q.07,143.19,0,286.39c0,35.46-26.18,61.6-61.65,61.65q-45.4.07-90.8,0Z"/></g></g></svg>