<svg xmlns="http://www.w3.org/2000/svg" viewBox="0 0 509.8 511.3"><title>instagram</title><g id="Layer_2" data-name="Layer 2"><g id="Layer_1-2" data-name="Layer 1"><path d="M509.8,151V356.59c-.28,1.78-.63,3.55-.82,5.35-1.08,10.06-1.59,20.2-3.27,30.16C500.29,424.16,486.59,452,462,473.81c-26.69,23.67-58.82,33.12-93.59,35.47-12.07.82-24.15,1.35-36.23,2H178.43c-3.13-.27-6.25-.71-9.38-.79-20.45-.52-40.88-1.32-60.88-6.23C66.14,494,34.85,470,16.24,430.62,4.66,406.1,1.16,379.74.88,353c-.58-55-1-110.08-.83-165.11.1-25.06.36-50.25,5.78-74.95,9.59-43.73,33.47-76.55,74.36-96,24.2-11.48,50.2-14.89,76.61-15.51C227.3-.23,297.8-1,368.26,2.36c20.53,1,40.61,5,59.44,13.5,46.78,21.19,71.37,58.77,79.06,108.49C508.13,133.17,508.81,142.1,509.8,151ZM254.63,466.13l0-.78c13.64,0,27.29.4,40.92-.08,29.06-1,58.34-.69,87.09-4.31,39.3-5,65.88-27.61,75.49-66.72,3.88-15.81,5.21-32.54,5.48-48.89q1.31-77.08.75-154.18a522.08,522.08,0,0,0-3.69-61.68c-5.17-41.23-30.76-69.07-71.54-77.23-17.47-3.5-35.64-4.54-53.51-4.8q-71.84-1-143.7-.23c-22.39.26-45,.82-67.07,4.38-38.4,6.2-63.93,28.93-72.6,67.34-3.88,17.19-5,35.23-5.36,52.93q-1.41,62.1-.76,124.24c.31,28.57,1,57.24,3.87,85.64,2.87,28.86,16.7,52.4,42.41,67.49,16.11,9.45,34,13.38,52.47,14C181.47,464.6,218.05,465.22,254.63,466.13Z"/><path d="M255.16,387.11c-72.53-.17-131.45-59.2-131.23-131.48.22-72.56,59.34-131.42,131.62-131A131.13,131.13,0,0,1,386.45,255.77C386.54,328.22,327.5,387.28,255.16,387.11Zm-85-131.31a85.05,85.05,0,1,0,84.95-85A84.82,84.82,0,0,0,170.18,255.8Z"/><path d="M422.23,119a30.57,30.57,0,1,1-31.11-30.2A30.44,30.44,0,0,1,422.23,119Z"/></g></g></svg>