<svg xmlns="http://www.w3.org/2000/svg" viewBox="0 0 384 383.98"><title>whatsapp</title><g id="Layer_2" data-name="Layer 2"><g id="Layer_1-2" data-name="Layer 1"><path d="M384,178.48v24a33.49,33.49,0,0,0-.68,3.65,183.18,183.18,0,0,1-15.56,61.35C322.68,367.7,201.58,409.77,104.24,359.14a9.09,9.09,0,0,0-5.9-.66Q64.43,367.06,30.61,376c-9.73,2.55-19.41,5.33-29.11,8L0,382.48a13.29,13.29,0,0,0,.89-2q12.67-45.82,25.36-91.63a8.62,8.62,0,0,0-1-7C.51,236.11-5,187.92,8.81,137.91,34.3,45.48,127.63-10.88,220,1.76c43.29,5.93,80.48,24.64,110.75,56.65,26.65,28.18,43.82,61.07,50.42,99.35C382.31,164.63,383.05,171.57,384,178.48ZM46.16,337.93c1.82-.41,2.79-.61,3.76-.86,17.51-4.54,35-9,52.51-13.7a8.16,8.16,0,0,1,7,1c36.76,22.08,76.2,29.29,118.1,19.73,84.81-19.36,141.29-101.47,120.07-191.35C327.31,67,238.44,14,153.19,36.37A159.5,159.5,0,0,0,34,190.21c0,30.78,8.65,59.11,25.36,84.91a10.8,10.8,0,0,1,1.45,10c-2.86,9.43-5.34,19-8,28.47C50.64,321.49,48.49,329.39,46.16,337.93Z"/><path d="M243.54,280.79c-13.14.57-24.25-4.51-35.68-8.46-32.24-11.16-57.12-32.15-78.39-58.1-10.22-12.47-20.45-24.9-27.16-39.77-7.05-15.63-9.83-31.66-2.4-47.76,3.19-6.91,8.13-13.07,12.69-19.27,2.6-3.53,6.71-5.24,11.12-5.45s9.11-.62,13.42.27c2.47.51,5.14,3.06,6.49,5.4,2.53,4.4,4.2,9.3,6.18,14,3.29,7.82,6.42,15.7,9.88,23.44,1.76,3.94,1.68,7.51-.81,10.93-3.15,4.33-6.27,8.71-9.71,12.81-5.33,6.37-5.5,7.13-1.26,14,15.23,24.86,36.13,43.05,63.25,54,5.69,2.29,7.74,1.88,11.7-2.93,4.61-5.59,9.26-11.14,13.6-16.94,2.4-3.21,5.21-4,8.81-3a28.46,28.46,0,0,1,3.9,1.32c11.91,5.23,23.78,10.55,35.7,15.73,3.54,1.54,5.15,4,5,7.86-.41,14.37-5.14,26.21-18.29,33.82C262.66,277.93,253.38,281.38,243.54,280.79Z"/></g></g></svg>