<svg xmlns="http://www.w3.org/2000/svg" viewBox="0 0 415.61 108.02"><defs><style>.cls-1{fill:#fff;}</style></defs><title>topaaa</title><g id="Layer_2" data-name="Layer 2"><g id="Layer_1-2" data-name="Layer 1"><path class="cls-1" d="M159.57,7.55h-5.32V6.17h12.24V7.55h-5.32V21.31h-1.6Z"/><path class="cls-1" d="M181.7,6.17V21.31h-1.58v-7h-9.48v7H169V6.17h1.6v6.75h9.48V6.17Z"/><path class="cls-1" d="M197.34,19.93v1.38H186.63V6.17H197V7.55h-8.78v5.39h7.83V14.3h-7.83v5.63Z"/><path class="cls-1" d="M217.11,21.31l-3.46-4.87a10.74,10.74,0,0,1-1.21.06h-4.07v4.8h-1.6V6.17h5.67c3.85,0,6.19,1.95,6.19,5.19a4.69,4.69,0,0,1-3.46,4.76l3.7,5.19Zm-.09-10c0-2.42-1.6-3.81-4.63-3.81h-4v7.59h4C215.42,15.14,217,13.74,217,11.36Z"/><path class="cls-1" d="M233.12,19.93v1.38H222.41V6.17h10.38V7.55H224v5.39h7.83V14.3H224v5.63Z"/><path class="cls-1" d="M236.88,6.17H243c4.85,0,8.11,3.12,8.11,7.57s-3.27,7.57-8.11,7.57h-6.17ZM243,19.93c4,0,6.62-2.55,6.62-6.19S247,7.55,243,7.55h-4.48V19.93Z"/><path class="cls-1" d="M273.07,6.17V21.31h-1.58v-7H262v7h-1.6V6.17H262v6.75h9.48V6.17Z"/><path class="cls-1" d="M287.5,17.26h-8.44l-1.82,4h-1.67L282.5,6.17h1.58L291,21.31h-1.69Zm-.58-1.3-3.63-8.13L279.64,16Z"/><path class="cls-1" d="M295.7,7.55h-5.32V6.17h12.24V7.55H297.3V21.31h-1.6Z"/><path class="cls-1" d="M173.9,74.31a11.43,11.43,0,0,1-1,5.17,12.5,12.5,0,0,1-3,4.17A10.4,10.4,0,0,1,165.5,86a9.41,9.41,0,0,1-5.27-.16,12.8,12.8,0,0,1-4.44-2.4q-2-1.67-3.81-3.44-1.36-1.36-2.56-2.77t-2.35-3a12.18,12.18,0,0,1-2.71-7.72l-.1-20V40.39H138l-5.22-9.18h11.48q0-3.65-.21-7-.21-2.82-.63-5.64a18.18,18.18,0,0,0-1.15-4.49,11.22,11.22,0,0,0-.78-1.36c-.24-.35-.47-.66-.68-.94a3.22,3.22,0,0,1-.63-.84l.73-1.46a25.09,25.09,0,0,1,3.34,1.67,27.19,27.19,0,0,1,3.13,2.4,16.52,16.52,0,0,1,3.13,3.86,22.63,22.63,0,0,1,2.35,6.21,41.63,41.63,0,0,1,.78,7.57h18.47l5.22,9.18H153.65V75.66a1.88,1.88,0,0,0,2,1.77,4.82,4.82,0,0,0,2.87-.68A15.53,15.53,0,0,0,161,74.93a11.21,11.21,0,0,0,3.13-4.28,12.22,12.22,0,0,0,.94-5.22q2.5,2.61,4.38,4.49L172.49,73A8.57,8.57,0,0,0,173.9,74.31Z"/><path class="cls-1" d="M203.85,46.65a22.07,22.07,0,0,1,6.94,5.58,21.61,21.61,0,0,1,4,7.25,20.88,20.88,0,0,1,.89,7.88,18.38,18.38,0,0,1-2.19,7.46,19.26,19.26,0,0,1-5.95,6.73,25.26,25.26,0,0,1-8.61,4,28.29,28.29,0,0,1-9.86.68,23.54,23.54,0,0,1-9.81-3.34A22,22,0,0,1,173,77.18a21,21,0,0,1-3.39-7,20.24,20.24,0,0,1-.57-7.51,19.63,19.63,0,0,1,2.19-7.15,21.77,21.77,0,0,1,4-5.17,23.44,23.44,0,0,1,5.48-3.91,24.08,24.08,0,0,1,6.58-2.24,26.25,26.25,0,0,1,7.2-.37V40.39H165l-5.22-9.18h59.91l5.22,9.18h-22v5.84l.47.21ZM182.56,79.11a14.08,14.08,0,0,0,16.12.16,19.77,19.77,0,0,0,5.74-5.9,22.71,22.71,0,0,0,3.18-7.57,17.08,17.08,0,0,0-.05-7.62,10.19,10.19,0,0,0-4-6,12.21,12.21,0,0,0-7.93-2.66,16.81,16.81,0,0,0-7.88,2.3,22.64,22.64,0,0,0-6.52,5.74,20.91,20.91,0,0,0-3.86,7.51,14.2,14.2,0,0,0,.05,7.72A11,11,0,0,0,182.56,79.11Z"/><path class="cls-1" d="M249.15,43.73a15.86,15.86,0,0,1,5.11.89,17.63,17.63,0,0,1,4.85,2.56,17,17,0,0,1,3.81,3.91A12.82,12.82,0,0,1,265,56a25.72,25.72,0,0,1,.05,9.08,26.21,26.21,0,0,1-2.45,7.25A25.38,25.38,0,0,1,258.7,78a34.9,34.9,0,0,1-4.23,3.91,36.28,36.28,0,0,1-3.39,2.35,11.79,11.79,0,0,1-1.51.84,16,16,0,0,1-10.38,2.56,27.38,27.38,0,0,1-10.07-3.08V108l-9.39-9.08V77.12h-.1V40.39h-7L207.4,31.2h61.89l5.22,9.18h-45.4V54l2.61-2.19a43.51,43.51,0,0,1,4.8-3.44,42.65,42.65,0,0,1,6.16-3.18A16.6,16.6,0,0,1,249.15,43.73Zm-20,29.74q3.55,6.05,7.57,7.46a10.55,10.55,0,0,0,7.72-.1A16.37,16.37,0,0,0,251,75.61a26.23,26.23,0,0,0,4.33-7.88,16.57,16.57,0,0,0,.78-8,8,8,0,0,0-4-5.84,10.15,10.15,0,0,0-3-1.15,8.14,8.14,0,0,0-4,.47,32.7,32.7,0,0,0-6.31,3.08A114.18,114.18,0,0,0,229.11,63Z"/><path class="cls-1" d="M298.41,44a26.26,26.26,0,0,1,4.8,1.93,20.39,20.39,0,0,1,4,2.71A12.57,12.57,0,0,1,309.94,52a7.23,7.23,0,0,1,1,3.55V86.31l-8.35-6.47a19.66,19.66,0,0,1-4.91,3.44,30.18,30.18,0,0,1-6.58,2.45,34.2,34.2,0,0,1-7.36,1,24.86,24.86,0,0,1-7.25-.84,18.66,18.66,0,0,1-6.26-3,13.87,13.87,0,0,1-4.38-5.53,11.53,11.53,0,0,1-1.1-7.31,15,15,0,0,1,3-6.63,18.15,18.15,0,0,1,6.16-4.91,20.93,20.93,0,0,1,8.35-2.19,24.57,24.57,0,0,1,9.5,1.46,29.27,29.27,0,0,1,9.76,6V55.62q0-3-3.29-4.64a12.75,12.75,0,0,0-8-.78q-3.34.52-5.32.94a37.29,37.29,0,0,0-3.76,1q-1.78.57-3.86,1.41t-5.64,2.19l-2.3-5.22q3.55-1.46,7-2.82,3-1.15,6.42-2.3A60.54,60.54,0,0,1,289,43.62a1,1,0,0,1,.47-.1,1,1,0,0,0,.47-.1v-3h-26.3l-5.22-9.18H316l5.22,9.18H298.41Zm3.13,26A29.46,29.46,0,0,0,293,65.38,24.23,24.23,0,0,0,284.63,64,13.27,13.27,0,0,0,278,65.8a7.57,7.57,0,0,0-3.55,5.06q-.84,3.65.42,5.74a6.65,6.65,0,0,0,3.71,2.92,14.82,14.82,0,0,0,5.74.63A31,31,0,0,0,290.84,79a40.25,40.25,0,0,0,6.16-2.3,19.66,19.66,0,0,0,4.54-2.82Z"/><path class="cls-1" d="M345.58,44a26.26,26.26,0,0,1,4.8,1.93,20.39,20.39,0,0,1,4,2.71A12.57,12.57,0,0,1,357.11,52a7.23,7.23,0,0,1,1,3.55V86.31l-8.35-6.47a19.66,19.66,0,0,1-4.91,3.44,30.18,30.18,0,0,1-6.58,2.45,34.2,34.2,0,0,1-7.36,1,24.86,24.86,0,0,1-7.25-.84,18.66,18.66,0,0,1-6.26-3A13.87,13.87,0,0,1,313,77.33a11.53,11.53,0,0,1-1.1-7.31,15,15,0,0,1,3-6.63,18.15,18.15,0,0,1,6.16-4.91,20.93,20.93,0,0,1,8.35-2.19,24.57,24.57,0,0,1,9.5,1.46,29.27,29.27,0,0,1,9.76,6V55.62q0-3-3.29-4.64a12.75,12.75,0,0,0-8-.78q-3.34.52-5.32.94a37.29,37.29,0,0,0-3.76,1q-1.78.57-3.86,1.41t-5.64,2.19l-2.3-5.22q3.55-1.46,7-2.82,3-1.15,6.42-2.3a60.54,60.54,0,0,1,6.21-1.77,1,1,0,0,1,.47-.1,1,1,0,0,0,.47-.1v-3h-26.3l-5.22-9.18h57.61l5.22,9.18H345.58Zm3.13,26a29.46,29.46,0,0,0-8.56-4.64A24.23,24.23,0,0,0,331.8,64a13.27,13.27,0,0,0-6.68,1.83,7.57,7.57,0,0,0-3.55,5.06q-.84,3.65.42,5.74a6.65,6.65,0,0,0,3.71,2.92,14.82,14.82,0,0,0,5.74.63A31,31,0,0,0,338,79a40.25,40.25,0,0,0,6.16-2.3,19.66,19.66,0,0,0,4.54-2.82Z"/><path class="cls-1" d="M392.75,44a26.26,26.26,0,0,1,4.8,1.93,20.39,20.39,0,0,1,4,2.71A12.57,12.57,0,0,1,404.29,52a7.23,7.23,0,0,1,1,3.55V86.31l-8.35-6.47A19.66,19.66,0,0,1,392,83.28a30.18,30.18,0,0,1-6.58,2.45,34.2,34.2,0,0,1-7.36,1,24.86,24.86,0,0,1-7.25-.84,18.66,18.66,0,0,1-6.26-3,13.87,13.87,0,0,1-4.38-5.53,11.53,11.53,0,0,1-1.1-7.31,15,15,0,0,1,3-6.63,18.15,18.15,0,0,1,6.16-4.91,20.93,20.93,0,0,1,8.35-2.19,24.57,24.57,0,0,1,9.5,1.46,29.27,29.27,0,0,1,9.76,6V55.62q0-3-3.29-4.64a12.75,12.75,0,0,0-8-.78q-3.34.52-5.32.94a37.29,37.29,0,0,0-3.76,1q-1.78.57-3.86,1.41T366,55.73l-2.3-5.22q3.55-1.46,7-2.82,3-1.15,6.42-2.3a60.54,60.54,0,0,1,6.21-1.77,1,1,0,0,1,.47-.1,1,1,0,0,0,.47-.1v-3H358l-5.22-9.18h57.61l5.22,9.18H392.75Zm3.13,26a29.46,29.46,0,0,0-8.56-4.64A24.23,24.23,0,0,0,379,64a13.27,13.27,0,0,0-6.68,1.83,7.57,7.57,0,0,0-3.55,5.06q-.84,3.65.42,5.74a6.65,6.65,0,0,0,3.71,2.92,14.82,14.82,0,0,0,5.74.63A31,31,0,0,0,385.19,79a40.25,40.25,0,0,0,6.16-2.3,19.66,19.66,0,0,0,4.54-2.82Z"/><path class="cls-1" d="M85.76,15q0-1,0-2c0-2.53-1.17-3.7-3.71-3.7H58a1.25,1.25,0,0,1-1.31-.73,4.26,4.26,0,0,0-4.23-2.42,18.52,18.52,0,0,0-3.35.93c-1.9-1.44-4-1.36-6.13.19a4.74,4.74,0,0,0-7.3,1.3,1.23,1.23,0,0,1-1.31.73q-6,0-12,0a3.12,3.12,0,0,0-3.2,3.2c0,1,0,2,0,3.06-2.35.51-3.18,1.53-3.19,3.87,0,.86,0,1.73,0,2.59a3.12,3.12,0,0,0,3.21,3.19c1,0,2,0,3.1,0V47.5H3.5A3.17,3.17,0,0,0,0,51C0,56.5,0,62,0,67.44a29.28,29.28,0,0,0,.38,4.75c2,11.41,8.28,19.57,18.68,24.59,1,.5,2.53.64,3.06,1.44s.14,2.24.16,3.4a3.11,3.11,0,0,0,3.2,3.21q17.52,0,35,0a3.11,3.11,0,0,0,3.16-3.14,20.7,20.7,0,0,0,0-2.49c-.09-.87.23-1.24,1.06-1.55A32.22,32.22,0,0,0,86,68.8c.23-6,.05-12.07,0-18.11a3.11,3.11,0,0,0-3.22-3.18c-1.09,0-2.18,0-3.24,0-1.18-3.89-3.94-6.24-7.34-6.37a8.06,8.06,0,0,0-8.34,6.29H57.39V25.2H79.17a3.15,3.15,0,0,0,3.41-3.4c0-1,0-1.92,0-2.86C85,18.4,85.76,17.41,85.76,15Zm-63.51,7H19.18V18.88h3.08ZM47.85,63.48l.28-.12a13.38,13.38,0,0,0,3.78,6.26,13.64,13.64,0,0,0,6.48,3.29H47.85ZM44.6,10.87a1.59,1.59,0,1,1,3.18,0c0,.16,0,.33,0,.5q0,17.67,0,35.33v.71H44.59V46.4q0-17.42,0-34.83C44.59,11.34,44.58,11.1,44.6,10.87Zm-6.37,0a1.59,1.59,0,1,1,3.17,0,5.8,5.8,0,0,1,0,.6q0,17.52,0,35v1H38.22v-1q0-17.42,0-34.83C38.22,11.38,38.21,11.14,38.23,10.91ZM22.38,12.53H35V15.6H22.38ZM35,18.87V47.42H31.92V18.87Zm-6.37,0V47.42H25.55V18.87ZM3,63.49H15.89v9.44H3.59Zm57.4,38.09H25.53V98.51H60.45ZM80.27,79a.76.76,0,0,1-.51.33,4.71,4.71,0,0,1-.89,0q-35.88,0-71.75,0c-1,0-1.52-.25-1.77-1.2-.17-.63-.45-1.23-.72-2H19.09V60.3H3.26V57.11H47.74V60.2H44.66V76.11h19c0-.92,0-1.84,0-2.75,0-.61.19-.86.77-1,.78-.23,1.53-.6,2.4-1v4.74H81.42C81,77.19,80.66,78.11,80.27,79Zm2.14-6.05H70.09c0-1.38,0-2.76,0-4.14a.89.89,0,0,1,.16-.35c.82-1.53,1.64-3.07,2.49-4.59a.91.91,0,0,1,.64-.43c3.11,0,6.22,0,9.59,0Zm.36-15.83v3.08H73.34V57.12ZM64.46,65.24a6,6,0,0,0,2.42-4.9c0-3.68,0-7.36,0-11a4.81,4.81,0,0,1,4.16-4.93C73,44,75.65,45.45,76,47.5c-.93,0-1.85,0-2.77,0a3.12,3.12,0,0,0-3.14,3.16c0,3.09,0,6.17,0,9.26A9.54,9.54,0,0,1,51.16,62,16.49,16.49,0,0,1,51,59.5q0-23.88,0-47.77c0-1.62.51-2.41,1.55-2.45s1.64.8,1.64,2.46q0,24.23,0,48.47a6.37,6.37,0,0,0,10.3,5Zm-.76-8.11c0,1.13.06,2.22,0,3.3a3.17,3.17,0,0,1-6.33-.06c-.06-1.05,0-2.11,0-3.24ZM79.32,22H57.38V18.88H79.32Zm3.18-6.37H57.38V12.51H82.5Z"/><path class="cls-1" d="M22.35,76.09h19V60.29h-19ZM25.54,63.5H38.16v9.44H25.54Z"/><path class="cls-1" d="M6.42,69.72h6.27V66.67H6.42Z"/><path class="cls-1" d="M73.34,69.71h6.24V66.66H73.34Z"/><path class="cls-1" d="M28.72,69.72H35V66.67H28.72Z"/><path class="cls-1" d="M112.65,34.31Q112,29,111.3,23.74c-.93-7-1.85-14.06-2.85-21.08C108-.58,102.24.13,99.78.08Q94.26,0,88.78,0c-1.64,0-24,.08-24.08.56.37,3.76,3.59,8.21,5.64,11.31a79.72,79.72,0,0,0,8.95,11C88.2,32,100.38,41.77,113.44,43.7,113.77,43.76,112.74,35.05,112.65,34.31ZM101.12,23.74A9.07,9.07,0,1,1,101,10.92,9.1,9.1,0,0,1,101.12,23.74Zm-.41-12.55a8.71,8.71,0,1,0,.14,12.31A8.72,8.72,0,0,0,100.71,11.19Zm-.85,8.57a1,1,0,0,1-1.5.17c-.41-.39-.81-.8-1.22-1.19a.54.54,0,0,0-.77,0l-3.58,3.67a.54.54,0,0,1-.77,0l-.31-.32a.54.54,0,0,1,0-.77l4.52-4.63a.54.54,0,1,0-.78-.76l-2.13,2.18a.54.54,0,0,1-.77,0l-.83-.8a.55.55,0,0,1,0-.77l2.13-2.18a.54.54,0,0,0,0-.77l-1.16-1.13a.55.55,0,0,1,0-.77l.91-.93,7.06,6.9a1.22,1.22,0,0,1,.09,1A3.32,3.32,0,0,1,99.86,19.75Z"/></g></g></svg>