<svg id="SvgjsSvg1001" width="288" height="288" xmlns="http://www.w3.org/2000/svg" version="1.1" xmlns:xlink="http://www.w3.org/1999/xlink" xmlns:svgjs="http://svgjs.com/svgjs"><defs id="SvgjsDefs1002"></defs><g id="SvgjsG1008"><svg xmlns="http://www.w3.org/2000/svg" viewBox="0 0 1002.51 695.52" width="288" height="288"><g data-name="Layer 2" fill="#ffffff" class="color000 svgShape"><g data-name="Layer 1" fill="#ffffff" class="color000 svgShape"><path d="M501.36 695.52L99.54.37H133c50 0 100.05.55 150.06-.33 13.93-.24 21.14 4.41 28 16.45 58.56 102.71 117.88 205 177 307.35 3.83 6.63 8.14 13 13.6 21.66 30.61-52.77 60.22-103.73 89.76-154.74C625 132.9 658.8 75.18 691.67 16.95 698.3 5.19 705.12-.2 719.36 0 779.18.89 839 .38 903.21.38zM100.42 346.43L201.08 520.18H0zM902.38 346.57l100.13 173H802.4z" fill="#ffffff" class="color000 svgShape"></path></g></g></svg></g></svg>